<?xml version="1.0" standalone="no"?>
<!DOCTYPE svg PUBLIC "-//W3C//DTD SVG 20010904//EN"
 "http://www.w3.org/TR/2001/REC-SVG-20010904/DTD/svg10.dtd">
<svg version="1.0" xmlns="http://www.w3.org/2000/svg"
 width="800.000000pt" height="800.000000pt" viewBox="0 0 800.000000 800.000000"
 preserveAspectRatio="xMidYMid meet">

<g transform="translate(0.000000,800.000000) scale(0.100000,-0.100000)"
fill="#000000" stroke="none">
<path d="M0 4000 l0 -4000 4000 0 4000 0 0 4000 0 4000 -4000 0 -4000 0 0
-4000z m1436 1505 c390 -99 605 -392 665 -905 17 -149 7 -462 -20 -614 -79
-444 -291 -726 -631 -840 -128 -42 -260 -56 -544 -56 l-256 0 0 560 0 560
-125 0 -125 0 0 155 0 155 125 0 125 0 0 505 0 505 344 0 c333 0 346 -1 442
-25z m2454 -130 l0 -155 -735 0 -735 0 0 155 0 155 735 0 735 0 0 -155z m2715
-502 c296 -677 370 -856 461 -1123 61 -179 60 -182 44 120 -5 96 -12 509 -16
918 l-7 742 136 0 137 0 0 -1220 0 -1221 -146 3 -146 3 -69 160 c-387 886
-473 1087 -544 1265 -45 113 -106 275 -135 360 -29 85 -57 160 -63 165 -6 6
-7 -14 -3 -55 3 -36 9 -478 12 -982 l7 -918 -137 0 -136 0 0 1220 0 1220 159
0 158 0 288 -657z m-1277 -570 c204 -664 370 -1208 368 -1210 -1 -2 -338 -2
-748 -1 l-746 3 371 1208 c204 664 373 1207 377 1207 3 0 173 -543 378 -1207z
m-1438 62 l0 -155 -735 0 -735 0 0 155 0 155 735 0 735 0 0 -155z m0 -1120 l0
-155 -735 0 -735 0 0 155 0 155 735 0 735 0 0 -155z m3470 -525 c0 -7 -1127
-10 -3360 -10 -2233 0 -3360 3 -3360 10 0 7 1127 10 3360 10 2233 0 3360 -3
3360 -10z m-2956 -149 l-7 -56 37 43 c28 34 37 40 42 28 3 -9 -1 -27 -10 -41
-17 -27 -21 -55 -7 -55 5 0 11 7 14 14 7 17 66 50 75 42 3 -3 -4 -16 -16 -29
-12 -13 -22 -32 -22 -42 0 -16 2 -17 18 -3 22 20 95 32 90 15 -3 -7 -14 -16
-25 -22 -12 -5 -26 -19 -32 -32 -12 -25 -8 -28 19 -13 23 13 112 1 107 -14 -2
-6 -23 -16 -47 -22 -41 -10 -68 -34 -38 -34 8 0 30 -9 51 -19 39 -20 31 -33
-15 -24 -15 3 -34 1 -43 -4 -15 -9 -13 -12 10 -27 16 -11 39 -16 56 -14 35 5
37 -4 5 -21 -15 -8 -36 -10 -56 -6 l-32 7 23 -31 c12 -17 26 -31 31 -31 4 0 8
-4 8 -10 0 -18 -32 -10 -62 15 -16 14 -33 23 -38 20 -9 -6 24 -75 42 -87 9 -5
5 -8 -10 -8 -13 0 -32 10 -43 23 -19 22 -19 22 -35 2 -9 -12 -13 -31 -10 -47
10 -50 -26 -27 -39 25 -4 15 -11 27 -16 27 -16 0 -41 -50 -36 -70 3 -11 2 -20
-2 -20 -17 0 -31 26 -31 57 0 18 -2 33 -5 33 -11 0 -65 -61 -65 -73 0 -7 -7
-3 -15 7 -13 17 -13 22 0 42 8 13 15 28 15 33 0 12 -72 -17 -82 -32 -4 -7 -9
-5 -14 7 -5 14 0 24 19 38 15 11 27 26 27 33 0 11 -6 11 -32 -2 -81 -40 -78
-40 -78 -12 0 13 10 23 29 30 34 12 54 44 20 34 -11 -4 -30 0 -44 9 -13 9 -34
16 -46 16 -19 0 -20 2 -8 16 9 11 23 14 44 11 51 -8 59 3 21 29 -19 13 -40 24
-45 24 -6 0 -11 5 -11 10 0 13 46 13 71 0 31 -17 40 -2 17 25 -14 16 -32 25
-52 25 -30 1 -30 1 -11 16 13 10 33 14 58 11 28 -4 36 -2 29 6 -5 7 -12 21
-14 32 -3 11 -9 28 -13 38 -10 24 29 23 47 -1 7 -11 24 -24 36 -31 21 -11 23
-11 19 6 -13 43 -12 98 2 98 13 0 21 -11 41 -54 12 -27 27 -22 23 6 -3 20 2
34 16 47 12 11 21 30 21 44 0 21 2 23 16 12 12 -11 14 -25 8 -69z m2793 8 c59
-28 94 -89 100 -173 13 -155 -63 -266 -182 -266 -119 0 -195 111 -182 266 12
154 136 235 264 173z m-6281 -8 c74 -34 110 -111 102 -221 -10 -141 -77 -200
-225 -200 l-83 0 0 220 0 220 83 0 c58 0 94 -6 123 -19z m984 -1 c0 -19 -7
-20 -100 -20 l-100 0 0 -75 0 -75 85 0 c78 0 85 -2 85 -20 0 -18 -7 -20 -85
-20 l-85 0 0 -85 0 -85 105 0 c98 0 105 -1 105 -20 0 -19 -7 -20 -130 -20
l-130 0 0 220 0 220 125 0 c118 0 125 -1 125 -20z m851 -184 c38 -109 71 -207
74 -217 5 -16 1 -19 -22 -19 -27 0 -31 4 -49 68 l-19 67 -82 3 -82 3 -22 -71
c-20 -60 -26 -70 -46 -70 -13 0 -23 3 -23 7 0 5 32 104 71 221 l71 213 30 -3
c30 -3 31 -6 99 -202z m756 131 c22 -39 70 -122 105 -182 l63 -110 -3 182 -4
183 26 0 26 0 0 -220 0 -220 -27 0 c-26 0 -37 16 -133 183 l-105 183 3 -183 4
-183 -26 0 -26 0 0 220 0 220 28 0 c23 0 33 -10 69 -73z m1583 -17 l0 -90 105
0 105 0 0 90 c0 89 0 90 25 90 l25 0 0 -220 0 -220 -25 0 -25 0 0 105 0 105
-105 0 -105 0 0 -105 0 -105 -25 0 -25 0 0 220 0 220 25 0 c25 0 25 -1 25 -90z
m960 -65 c0 -208 16 -245 105 -245 89 0 105 37 105 245 l0 155 25 0 25 0 0
-162 c0 -139 -3 -169 -20 -205 -25 -55 -70 -83 -135 -83 -65 0 -110 28 -135
83 -17 36 -20 66 -20 205 l0 162 25 0 25 0 0 -155z m1310 -435 c0 -7 -1127
-10 -3360 -10 -2233 0 -3360 3 -3360 10 0 7 1127 10 3360 10 2233 0 3360 -3
3360 -10z"/>
<path d="M950 4886 l0 -366 135 0 135 0 0 -155 0 -155 -135 0 -135 0 0 -409 0
-409 98 -7 c272 -19 469 68 597 265 107 165 165 411 165 706 0 465 -149 761
-434 862 -63 22 -91 26 -248 30 l-178 4 0 -366z"/>
<path d="M4761 4018 c-101 -332 -186 -609 -188 -615 -4 -10 75 -13 377 -13
302 0 381 3 377 13 -2 6 -87 283 -188 615 -101 331 -186 602 -189 602 -3 0
-88 -271 -189 -602z"/>
<path d="M4346 2488 c-120 -26 -174 -168 -101 -264 31 -40 94 -74 140 -74 36
0 104 30 127 56 10 11 25 37 34 59 50 121 -66 252 -200 223z m44 -16 c0 -15
-43 -137 -51 -146 -5 -6 -9 -1 -9 12 0 17 -6 22 -24 22 -40 0 -40 18 0 22 33
3 39 7 50 41 8 22 9 37 3 37 -20 0 -68 -30 -87 -55 -24 -30 -38 -18 -16 13 27
39 134 82 134 54z m96 -22 c5 0 54 -74 54 -82 0 -5 -38 -8 -85 -8 -50 0 -85 4
-85 10 0 6 7 10 15 10 13 0 15 7 9 35 -4 21 -2 35 4 35 5 0 13 -16 16 -35 7
-34 8 -35 51 -35 25 0 45 4 45 9 0 14 -59 60 -86 67 -13 3 -21 10 -18 15 3 5
21 2 41 -6 19 -8 37 -15 39 -15z m-173 -123 c31 -22 57 -44 57 -48 0 -13 -14
-11 -27 2 -9 9 -14 5 -18 -14 -4 -14 -18 -33 -31 -42 -23 -15 -25 -14 -44 17
-13 22 -20 51 -20 86 0 60 -5 60 83 -1z m127 8 c0 -8 4 -15 9 -15 5 0 14 7 21
15 7 8 20 15 29 15 11 -1 7 -8 -14 -25 -30 -25 -32 -36 -14 -83 l10 -26 21 32
c11 18 20 48 21 67 1 46 17 46 17 0 0 -41 -18 -81 -49 -109 -16 -15 -22 -16
-25 -5 -3 8 -14 41 -25 75 -24 69 -25 74 -11 74 6 0 10 -7 10 -15z m-29 -65
c-8 -5 -4 -12 13 -24 39 -25 31 -41 -9 -16 l-34 21 -30 -22 c-17 -12 -28 -26
-25 -30 8 -14 59 -19 93 -9 37 10 55 5 31 -10 -34 -22 -166 -3 -158 21 6 17
123 97 127 87 2 -6 -2 -14 -8 -18z"/>
<path d="M4240 2330 c0 -29 31 -101 42 -98 6 2 16 18 23 35 13 31 12 33 -20
57 -40 31 -45 32 -45 6z"/>
<path d="M7035 2517 c-18 -18 -38 -51 -44 -72 -24 -86 -7 -171 44 -222 28 -28
40 -33 80 -33 40 0 52 5 80 33 18 18 38 51 44 72 24 86 7 171 -44 222 -28 28
-40 33 -80 33 -40 0 -52 -5 -80 -33z"/>
<path d="M760 2370 l0 -180 40 0 c61 0 116 27 142 69 30 47 32 168 5 219 -22
41 -84 71 -144 72 l-43 0 0 -180z"/>
<path d="M2643 2510 c-19 -46 -55 -172 -50 -176 3 -3 31 -4 64 -2 l59 3 -31
100 c-29 91 -33 98 -42 75z"/>
</g>
</svg>
